<svg xmlns="http://www.w3.org/2000/svg" width="896" height="924" viewBox="0 0 896 924" role="img" aria-labelledby="title desc">
  <title id="title">LabHub login page</title>
  <desc id="desc">LabHub login page for the Peking University Deep-Time Global Change group.</desc>
  <defs>
    <linearGradient id="buttonGradient" x1="0" x2="1" y1="0" y2="0">
      <stop offset="0" stop-color="#c95c00"/>
      <stop offset="1" stop-color="#ffa20d"/>
    </linearGradient>
    <filter id="shadow" x="-12%" y="-12%" width="124%" height="124%">
      <feDropShadow dx="0" dy="10" stdDeviation="24" flood-color="#000000" flood-opacity="0.36"/>
    </filter>
  </defs>
  <rect width="896" height="924" fill="#090d15"/>
  <rect x="71" y="38" width="759" height="859" rx="22" fill="#111827" stroke="#31435f" stroke-width="2" filter="url(#shadow)"/>
  <g transform="translate(278 148) rotate(-39)">
    <rect x="0" y="0" width="23" height="83" rx="11.5" fill="#1fcf51" stroke="#8fb9a3" stroke-width="3"/>
    <rect x="5" y="7" width="13" height="59" rx="6.5" fill="#26e65b"/>
    <rect x="0" y="0" width="23" height="20" rx="5" fill="#d7dde8" stroke="#8fb9a3" stroke-width="2"/>
    <path d="M5 22h13v43c-3 6-10 8-13 0z" fill="#0bb743" opacity="0.55"/>
    <circle cx="25" cy="-6" r="3" fill="#40d66a"/>
    <circle cx="31" cy="-15" r="2" fill="#40d66a"/>
    <circle cx="30" cy="4" r="2" fill="#40d66a"/>
  </g>
  <text x="363" y="206" font-family="Arial, Helvetica, sans-serif" font-size="72" font-weight="700" fill="#e8eef8">LabHub</text>
  <text x="258" y="278" font-family="Arial, Helvetica, sans-serif" font-size="30" font-weight="700" fill="#94a3b8">北大深时全球变化 · 李明松团队</text>
  <rect x="153" y="350" width="596" height="85" rx="14" fill="#223045" stroke="#344762" stroke-width="2"/>
  <text x="188" y="405" font-family="Arial, Helvetica, sans-serif" font-size="30" font-weight="700" fill="#9ca3af">用户名</text>
  <rect x="153" y="460" width="596" height="85" rx="14" fill="#223045" stroke="#344762" stroke-width="2"/>
  <text x="188" y="515" font-family="Arial, Helvetica, sans-serif" font-size="30" font-weight="700" fill="#9ca3af">密码</text>
  <rect x="153" y="570" width="596" height="93" rx="15" fill="url(#buttonGradient)"/>
  <text x="416" y="630" font-family="Arial, Helvetica, sans-serif" font-size="32" font-weight="700" fill="#06090f">登 录</text>
  <text x="328" y="795" font-family="Arial, Helvetica, sans-serif" font-size="24" font-weight="700" fill="#9badc5">🌐 访问课题组网站 →</text>
</svg>
